<svg width="36" height="37" viewBox="0 0 36 37" fill="none" xmlns="http://www.w3.org/2000/svg">
<g clip-path="url(#clip0_1_2209)">
<path d="M18 3.5C9.7125 3.5 3 10.2125 3 18.5C2.9983 21.6489 3.98822 24.7184 5.82933 27.273C7.67043 29.8276 10.2692 31.7376 13.257 32.732C14.007 32.8625 14.2875 32.4125 14.2875 32.018C14.2875 31.6625 14.268 30.482 14.268 29.225C10.5 29.9195 9.525 28.307 9.225 27.4625C9.0555 27.0305 8.325 25.7 7.6875 25.343C7.1625 25.0625 6.4125 24.368 7.668 24.35C8.85 24.3305 9.693 25.4375 9.975 25.8875C11.325 28.1555 13.482 27.518 14.343 27.125C14.475 26.15 14.868 25.4945 15.3 25.1195C11.9625 24.7445 8.475 23.45 8.475 17.7125C8.475 16.0805 9.0555 14.732 10.0125 13.6805C9.8625 13.3055 9.3375 11.768 10.1625 9.7055C10.1625 9.7055 11.418 9.3125 14.2875 11.2445C15.5086 10.9056 16.7703 10.735 18.0375 10.7375C19.3125 10.7375 20.5875 10.9055 21.7875 11.243C24.6555 9.293 25.9125 9.707 25.9125 9.707C26.7375 11.7695 26.2125 13.307 26.0625 13.682C27.018 14.732 27.6 16.0625 27.6 17.7125C27.6 23.4695 24.0945 24.7445 20.757 25.1195C21.3 25.5875 21.7695 26.4875 21.7695 27.8945C21.7695 29.9 21.75 31.5125 21.75 32.0195C21.75 32.4125 22.032 32.8805 22.782 32.7305C25.7595 31.7252 28.3469 29.8115 30.1799 27.2587C32.0128 24.706 32.9992 21.6427 33 18.5C33 10.2125 26.2875 3.5 18 3.5Z" fill="white"/>
</g>
<defs>
<clipPath id="clip0_1_2209">
<rect width="36" height="36" fill="white" transform="translate(0 0.5)"/>
</clipPath>
</defs>
</svg>
